<svg width="28" height="28" viewBox="0 0 28 28" fill="none" xmlns="http://www.w3.org/2000/svg">
<path d="M13.9916 27.3361C17.588 27.2789 21.0144 25.7954 23.5169 23.2119C26.0195 20.6284 27.3933 17.1566 27.3361 13.5602C27.2789 9.96382 25.7954 6.53746 23.2119 4.03488C20.6284 1.5323 17.1566 0.1585 13.5602 0.215707C9.96382 0.272915 6.53745 1.75644 4.03487 4.33992C1.53229 6.92341 0.158496 10.3952 0.215703 13.9916C0.27291 17.588 1.75643 21.0144 4.33992 23.517C6.9234 26.0195 10.3952 27.3933 13.9916 27.3361V27.3361ZM7.8568 14.7178C7.63203 14.7214 7.41504 14.6355 7.25357 14.4791C7.0921 14.3227 6.99938 14.1085 6.99581 13.8838C6.99223 13.659 7.07809 13.442 7.2345 13.2805C7.39092 13.1191 7.60506 13.0263 7.82984 13.0228L17.6491 12.8666L13.952 9.28694C13.872 9.2094 13.808 9.11684 13.7637 9.01457C13.7194 8.91229 13.6957 8.80229 13.694 8.69085C13.6922 8.57942 13.7124 8.46872 13.7534 8.36509C13.7944 8.26145 13.8554 8.16691 13.933 8.08686C14.0105 8.00681 14.103 7.94282 14.2053 7.89853C14.3076 7.85425 14.4176 7.83055 14.529 7.82877C14.6405 7.827 14.7512 7.84719 14.8548 7.8882C14.9584 7.92921 15.053 7.99023 15.133 8.06777L20.299 13.072C20.3792 13.1494 20.4433 13.242 20.4876 13.3442C20.532 13.4465 20.5558 13.5566 20.5575 13.668C20.5593 13.7795 20.5391 13.8903 20.498 13.9939C20.4569 14.0975 20.3958 14.1921 20.3181 14.272L15.3139 19.438C15.1573 19.5997 14.9429 19.6925 14.7178 19.6961C14.4928 19.6997 14.2755 19.6137 14.1138 19.4571C13.9521 19.3005 13.8593 19.0861 13.8557 18.861C13.8521 18.636 13.9381 18.4187 14.0947 18.257L17.6761 14.5616L7.8568 14.7178Z" fill="#828282"/>
</svg>
