<svg width="328" height="81" viewBox="0 0 328 81" fill="none" xmlns="http://www.w3.org/2000/svg">
<g clip-path="url(#clip0)">
<path d="M107.175 22.5V18.6C107.175 16.4333 106.308 15.35 104.575 15.35C102.842 15.35 101.975 16.4333 101.975 18.6V42.65C101.975 43.6467 102.17 44.4483 102.56 45.055C102.95 45.6617 103.448 45.965 104.055 45.965C105.008 45.965 106.048 45.3583 107.175 44.145V36.8H104.9V29H120.175V49.8C120.175 51.8367 120.283 53.57 120.5 55H114.065L111.27 50.97C107.673 54.09 103.275 55.65 98.075 55.65C95.3883 55.65 93.2 54.935 91.51 53.505C89.82 52.0317 88.975 50.1467 88.975 47.85V15.35C88.975 12.49 90.145 10.475 92.485 9.305C94.8683 8.135 98.8983 7.55 104.575 7.55C114.975 7.55 120.175 9.93333 120.175 14.7V22.5H107.175ZM123.085 8.2H147.785V17.3H136.085V27.05H143.885V36.15H136.085V45.9H147.785V55H123.085V8.2ZM150.395 8.2H151.695C158.455 8.2 164.522 11.06 169.895 16.78V8.2H181.595V49.8C181.595 51.8367 181.703 53.57 181.92 55H168.595V40.05C168.595 34.72 168.075 30.2567 167.035 26.66C166.038 23.02 164.825 21.2 163.395 21.2V55H150.395V8.2ZM184.814 8.2H209.514V17.3H197.814V27.05H205.614V36.15H197.814V45.9H209.514V55H184.814V8.2ZM225.125 16V29H227.725C229.458 29 230.325 27.9167 230.325 25.75V19.25C230.325 17.0833 229.458 16 227.725 16H225.125ZM212.125 8.2H227.075C232.751 8.2 236.76 8.785 239.1 9.955C241.483 11.125 242.675 13.14 242.675 16V25.1C242.675 27.18 242.068 28.805 240.855 29.975C239.641 31.145 237.648 31.9467 234.875 32.38C237.171 33.03 239.143 34.1567 240.79 35.76C242.48 37.32 243.325 38.9667 243.325 40.7V49.8C243.325 51.8367 243.433 53.57 243.65 55H232.6C231.69 55 231.083 54.3933 230.78 53.18C230.476 51.9667 230.325 49.7567 230.325 46.55V40.05C230.325 39.0967 230.13 38.3167 229.74 37.71C229.35 37.1033 228.851 36.8 228.245 36.8H225.125V55H212.125V8.2Z" fill="white"/>
<path d="M245.902 8.2H258.902V29.13C258.902 31.8167 259.183 35.2183 259.747 39.335C260.353 43.4083 260.938 46.03 261.502 47.2C262.065 46.03 262.628 43.4083 263.192 39.335C263.798 35.2617 264.102 31.86 264.102 29.13V8.2H277.102V25.1C277.102 28.5667 276.343 32.7917 274.827 37.775C273.31 42.7583 271.793 46.875 270.277 50.125L268.002 55H255.002C254.742 54.5233 254.395 53.8517 253.962 52.985C253.572 52.1183 252.857 50.4283 251.817 47.915C250.777 45.4017 249.845 42.975 249.022 40.635C248.242 38.295 247.527 35.6733 246.877 32.77C246.227 29.8233 245.902 27.2667 245.902 25.1V8.2ZM280.012 8.2H293.012V55H280.012V8.2ZM325.852 21.2H315.452V17.3C315.452 16 314.152 15.35 311.552 15.35C308.952 15.35 307.652 16.2167 307.652 17.95C307.652 19.25 308.302 20.615 309.602 22.045C310.902 23.4317 312.462 24.7533 314.282 26.01C316.145 27.2233 317.987 28.48 319.807 29.78C321.67 31.08 323.252 32.51 324.552 34.07C325.852 35.63 326.502 37.19 326.502 38.75V47.85C326.502 50.71 325.353 52.725 323.057 53.895C320.76 55.065 316.817 55.65 311.227 55.65C301.043 55.65 295.952 53.4833 295.952 49.15V41.35H306.352V45.25C306.352 46.9833 307.76 47.85 310.577 47.85C313.393 47.85 314.802 46.7667 314.802 44.6C314.802 43.3 314.173 41.935 312.917 40.505C311.66 39.075 310.143 37.7317 308.367 36.475C306.59 35.175 304.813 33.875 303.037 32.575C301.26 31.2317 299.743 29.78 298.487 28.22C297.23 26.6167 296.602 25.035 296.602 23.475V15.35C296.602 12.49 297.707 10.475 299.917 9.305C302.127 8.135 305.897 7.55 311.227 7.55C316.557 7.55 320.327 8.04833 322.537 9.045C324.747 9.99833 325.852 11.6667 325.852 14.05V21.2Z" fill="#0CAF39"/>
<path d="M97.6526 73.8591C98.4566 74.0271 99.0506 74.3451 99.4346 74.8131C99.8306 75.2691 100.029 75.8751 100.029 76.6311C100.029 78.8391 98.3786 79.9431 95.0786 79.9431C93.9386 79.9431 93.0026 79.9191 92.2706 79.8711H92.2526L92.3786 76.3971L92.2526 68.3151L95.8526 68.2971C96.9686 68.2971 97.8326 68.5431 98.4446 69.0351C99.0686 69.5151 99.3806 70.2171 99.3806 71.1411C99.3806 71.7891 99.2306 72.3471 98.9306 72.8151C98.6306 73.2711 98.2046 73.6191 97.6526 73.8591ZM97.4726 71.3571C97.4726 70.7811 97.3106 70.3671 96.9866 70.1151C96.6626 69.8631 96.1166 69.7371 95.3486 69.7371H94.1246L94.0706 73.2831L95.9246 73.3371C96.4526 73.2051 96.8426 72.9831 97.0946 72.6711C97.3466 72.3471 97.4726 71.9091 97.4726 71.3571ZM95.3846 78.5031C96.2726 78.5031 96.9566 78.3351 97.4366 77.9991C97.9166 77.6631 98.1566 77.1711 98.1566 76.5231C98.1566 75.4911 97.4906 74.8851 96.1586 74.7051L94.0526 74.7231L94.0346 76.2351L94.0886 78.4491C94.5566 78.4851 94.9886 78.5031 95.3846 78.5031ZM103.541 76.3971L103.451 68.3691L105.323 68.2791L105.215 76.9911H105.359L110.777 68.3151H112.739L112.649 76.2351L112.721 79.8711H110.849L110.939 76.3971V71.1951H110.795L105.377 79.8711H103.451L103.541 76.3971ZM121.361 73.8411C122.933 74.2371 123.719 75.1611 123.719 76.6131C123.719 77.6691 123.317 78.5031 122.513 79.1151C121.709 79.7271 120.617 80.0331 119.237 80.0331C118.613 80.0331 118.019 79.9611 117.455 79.8171C116.891 79.6731 116.411 79.4691 116.015 79.2051L116.357 77.5851L116.519 77.5311C116.891 77.8311 117.311 78.0651 117.779 78.2331C118.259 78.4011 118.739 78.4851 119.219 78.4851C119.999 78.4851 120.629 78.2991 121.109 77.9271C121.601 77.5551 121.847 77.0691 121.847 76.4691C121.847 75.9891 121.697 75.5931 121.397 75.2811C121.097 74.9691 120.677 74.7591 120.137 74.6511H117.707L117.563 74.5071L117.689 73.2291L120.011 73.2651C120.395 73.0971 120.701 72.8391 120.929 72.4911C121.169 72.1431 121.289 71.7591 121.289 71.3391C121.289 70.3071 120.617 69.7911 119.273 69.7911C118.337 69.7911 117.371 70.0971 116.375 70.7091L116.159 70.6191L116.321 68.9811C117.269 68.4531 118.277 68.1891 119.345 68.1891C120.533 68.1891 121.469 68.4471 122.153 68.9631C122.837 69.4671 123.179 70.1631 123.179 71.0511C123.179 71.6631 123.017 72.2151 122.693 72.7071C122.381 73.1991 121.937 73.5771 121.361 73.8411ZM135.501 68.3331L132.153 76.3071C131.697 77.3151 131.277 78.0651 130.893 78.5571C130.521 79.0491 130.077 79.4031 129.561 79.6191C129.057 79.8231 128.361 79.9551 127.473 80.0151L127.311 79.9971C127.179 79.5771 127.071 79.0971 126.987 78.5571L127.077 78.3771C128.001 78.2691 128.679 78.1311 129.111 77.9631C129.543 77.7831 129.897 77.4951 130.173 77.0991L125.781 68.3331L127.779 68.3151L128.193 69.4491L130.875 75.1191H131.073L133.323 69.3591L133.665 68.3331H135.501ZM146.424 79.8711H144.516L144.246 78.5751L143.742 76.9731L141.294 76.9191L139.08 76.9731L138.54 78.4851L138.252 79.8711H136.398L140.52 68.3151H142.698L146.424 79.8711ZM143.274 75.4611L141.618 70.1331H141.492L139.602 75.4611L141.42 75.4971L143.274 75.4611ZM156.697 76.2351L156.751 79.8711H154.897L154.987 76.3971L154.915 69.7371H152.251L152.161 70.6551C151.945 73.0071 151.693 74.8311 151.405 76.1271C151.129 77.4231 150.775 78.3711 150.343 78.9711C149.923 79.5711 149.371 79.9431 148.687 80.0871L148.165 80.1231L147.823 78.6291C148.399 78.4371 148.849 78.0771 149.173 77.5491C149.509 77.0211 149.779 76.2051 149.983 75.1011C150.199 73.9971 150.397 72.4071 150.577 70.3311L150.775 68.3511L150.757 68.3151H156.787L156.697 76.2351ZM165.345 72.9591C166.485 72.9591 167.349 73.2291 167.937 73.7691C168.525 74.2971 168.819 75.0651 168.819 76.0731C168.819 77.2731 168.405 78.2091 167.577 78.8811C166.761 79.5411 165.609 79.8711 164.121 79.8711H161.115L161.205 76.4151L161.115 68.3151H162.987L162.933 72.9591H165.345ZM164.733 78.5571C165.441 78.4611 165.975 78.2211 166.335 77.8371C166.707 77.4531 166.893 76.9431 166.893 76.3071C166.893 75.6591 166.707 75.1611 166.335 74.8131C165.975 74.4651 165.447 74.2971 164.751 74.3091L162.915 74.3271L162.897 76.2531L162.933 78.4851L164.733 78.5571ZM181.089 76.2351L181.143 79.8711H179.289L179.379 76.3971L179.361 74.8311L176.409 74.8131L173.709 74.8311L173.691 76.2351L173.763 79.8711H171.927L171.999 76.3971L171.927 68.3151H173.781L173.727 73.2831L176.553 73.3191L179.343 73.2831L179.289 68.3151H181.179L181.089 76.2351ZM189.171 72.9591C190.215 72.9591 191.013 73.2291 191.565 73.7691C192.129 74.2971 192.411 75.0651 192.411 76.0731C192.411 77.2731 192.021 78.2091 191.241 78.8811C190.461 79.5411 189.363 79.8711 187.947 79.8711H185.121L185.211 76.4151L185.121 68.3151H186.993L186.939 72.9591H189.171ZM195.741 76.2351L195.831 79.8711H193.941L194.067 76.3971L193.941 68.3151H195.849L195.741 76.2351ZM188.559 78.5571C189.183 78.4611 189.663 78.2211 189.999 77.8371C190.335 77.4531 190.503 76.9431 190.503 76.3071C190.503 75.6591 190.335 75.1611 189.999 74.8131C189.663 74.4651 189.189 74.2971 188.577 74.3091L186.921 74.3271L186.903 76.2531L186.939 78.4851L188.559 78.5571ZM206.982 78.2871L207.09 78.4491L206.964 79.8711H200.142L200.268 76.3971L200.142 68.3151H207L207.108 68.4771L206.964 69.8991L204.228 69.8271L202.032 69.8451L201.978 73.2111L204.066 73.2471L205.974 73.1931L206.1 73.3371L205.956 74.7591L203.922 74.7051L201.96 74.7411L201.942 76.2351L201.996 78.3591L204.192 78.3771L206.982 78.2871ZM222.846 79.8711H220.938L220.668 78.5751L220.164 76.9731L217.716 76.9191L215.502 76.9731L214.962 78.4851L214.674 79.8711H212.82L216.942 68.3151H219.12L222.846 79.8711ZM219.696 75.4611L218.04 70.1331H217.914L216.024 75.4611L217.842 75.4971L219.696 75.4611ZM233.119 76.2351L233.173 79.8711H231.319L231.409 76.3971L231.337 69.7371H228.673L228.583 70.6551C228.367 73.0071 228.115 74.8311 227.827 76.1271C227.551 77.4231 227.197 78.3711 226.765 78.9711C226.345 79.5711 225.793 79.9431 225.109 80.0871L224.587 80.1231L224.245 78.6291C224.821 78.4371 225.271 78.0771 225.595 77.5491C225.931 77.0211 226.201 76.2051 226.405 75.1011C226.621 73.9971 226.819 72.4071 226.999 70.3311L227.197 68.3511L227.179 68.3151H233.209L233.119 76.2351ZM243.765 68.4771L243.621 69.8451L241.155 69.7911H239.409L239.337 76.2351L239.409 79.8711H237.555L237.627 76.3971L237.555 68.3151H243.639L243.765 68.4771ZM249.912 68.1711C251.508 68.1711 252.738 68.6631 253.602 69.6471C254.466 70.6311 254.898 72.0351 254.898 73.8591C254.898 75.8271 254.436 77.3511 253.512 78.4311C252.588 79.4991 251.274 80.0331 249.57 80.0331C247.986 80.0331 246.762 79.5291 245.898 78.5211C245.046 77.5011 244.62 76.0611 244.62 74.2011C244.62 72.2691 245.076 70.7811 245.988 69.7371C246.912 68.6931 248.22 68.1711 249.912 68.1711ZM249.768 69.6831C248.676 69.6831 247.86 70.0371 247.32 70.7451C246.792 71.4411 246.528 72.5211 246.528 73.9851C246.528 75.5811 246.786 76.7511 247.302 77.4951C247.83 78.2271 248.64 78.5931 249.732 78.5931C250.836 78.5931 251.652 78.2391 252.18 77.5311C252.708 76.8231 252.972 75.7191 252.972 74.2191C252.972 72.6471 252.708 71.5011 252.18 70.7811C251.664 70.0491 250.86 69.6831 249.768 69.6831ZM262.258 68.2971C263.422 68.2971 264.316 68.5971 264.94 69.1971C265.576 69.7851 265.894 70.6371 265.894 71.7531C265.894 73.0491 265.492 74.0751 264.688 74.8311C263.896 75.5871 262.804 75.9651 261.412 75.9651H260.134V76.2351L260.224 79.8711H258.334L258.46 76.3971L258.334 68.3151L262.258 68.2971ZM261.952 74.5251C262.612 74.3931 263.11 74.1111 263.446 73.6791C263.794 73.2351 263.968 72.6471 263.968 71.9151C263.968 71.1951 263.782 70.6611 263.41 70.3131C263.05 69.9651 262.498 69.7791 261.754 69.7551L260.224 69.8091L260.152 74.4891L261.952 74.5251ZM269.096 76.3971L269.006 68.3691L270.878 68.2791L270.77 76.9911H270.914L276.332 68.3151H278.294L278.204 76.2351L278.276 79.8711H276.404L276.494 76.3971V71.1951H276.35L270.932 79.8711H269.006L269.096 76.3971ZM289.116 68.4771L289.008 69.8811L286.92 69.7731H285.948L285.858 76.2351L285.948 79.8711H284.076L284.184 76.3971L284.094 69.7731H283.122L280.998 69.8811L280.872 69.7191L281.016 68.3151H289.008L289.116 68.4771ZM303.65 79.8711H301.994L301.76 76.3611L301.22 71.1411H301.094L298.124 78.5931H296.648L293.894 71.1411H293.732L293.192 76.1991L292.904 79.8711H291.338L292.544 68.3151H294.668L295.208 70.0431L297.422 76.1811H297.566L299.906 69.9891L300.446 68.3151H302.552L303.65 79.8711ZM311.143 72.9591C312.187 72.9591 312.985 73.2291 313.537 73.7691C314.101 74.2971 314.383 75.0651 314.383 76.0731C314.383 77.2731 313.993 78.2091 313.213 78.8811C312.433 79.5411 311.335 79.8711 309.919 79.8711H307.093L307.183 76.4151L307.093 68.3151H308.965L308.911 72.9591H311.143ZM317.713 76.2351L317.803 79.8711H315.913L316.039 76.3971L315.913 68.3151H317.821L317.713 76.2351ZM310.531 78.5571C311.155 78.4611 311.635 78.2211 311.971 77.8371C312.307 77.4531 312.475 76.9431 312.475 76.3071C312.475 75.6591 312.307 75.1611 311.971 74.8131C311.635 74.4651 311.161 74.2971 310.549 74.3091L308.893 74.3271L308.875 76.2531L308.911 78.4851L310.531 78.5571Z" fill="white"/>
<rect x="19.6323" y="44.1941" width="4.3991" height="26.3946" transform="rotate(-47.3633 19.6323 44.1941)" fill="#F80000"/>
<rect x="19.6323" y="44.1941" width="4.3991" height="26.3946" transform="rotate(-47.3633 19.6323 44.1941)" fill="white"/>
<rect x="20.3388" y="44.1649" width="3.3991" height="25.3946" transform="rotate(-47.3633 20.3388 44.1649)" stroke="black" stroke-opacity="0.1"/>
<rect x="41.9814" y="19.9208" width="4.3991" height="26.3946" transform="rotate(-47.3633 41.9814 19.9208)" fill="#F80000"/>
<rect x="41.9814" y="19.9208" width="4.3991" height="26.3946" transform="rotate(-47.3633 41.9814 19.9208)" fill="white"/>
<rect x="42.688" y="19.8916" width="3.3991" height="25.3946" transform="rotate(-47.3633 42.688 19.8916)" stroke="black" stroke-opacity="0.1"/>
<rect width="8.79819" height="68.186" transform="matrix(-0.735663 -0.677348 -0.677348 0.735663 65.2263 17.4053)" fill="#0CAF3A"/>
<rect x="-0.706505" y="0.0291575" width="7.79819" height="67.186" transform="matrix(-0.735663 -0.677348 -0.677348 0.735663 64.0198 16.9344)" stroke="white" stroke-opacity="0.1"/>
<circle cx="63.9769" cy="12.2686" r="6.41535" transform="rotate(42.6367 63.9769 12.2686)" fill="#0CAF3A"/>
<circle cx="63.9769" cy="12.2686" r="5.91535" transform="rotate(42.6367 63.9769 12.2686)" stroke="white" stroke-opacity="0.1"/>
<circle cx="14.4386" cy="66.0718" r="6.41535" transform="rotate(42.6367 14.4386 66.0718)" fill="#0CAF3A"/>
<circle cx="14.4386" cy="66.0718" r="5.91535" transform="rotate(42.6367 14.4386 66.0718)" stroke="white" stroke-opacity="0.1"/>
<rect width="8.79819" height="68.186" transform="matrix(-0.677348 0.735663 0.735663 0.677348 18.3508 13.1129)" fill="#0CAF3A"/>
<rect x="0.0291575" y="0.706505" width="7.79819" height="67.186" transform="matrix(-0.677348 0.735663 0.735663 0.677348 17.88 13.3194)" stroke="white" stroke-opacity="0.1"/>
<circle cx="12.2696" cy="13.4935" r="6.41535" transform="rotate(42.6367 12.2696 13.4935)" fill="#0CAF3A"/>
<circle cx="12.2696" cy="13.4935" r="5.91535" transform="rotate(42.6367 12.2696 13.4935)" stroke="white" stroke-opacity="0.1"/>
<circle cx="67.0164" cy="63.9004" r="6.41535" transform="rotate(42.6367 67.0164 63.9004)" fill="#0CAF3A"/>
<circle cx="67.0164" cy="63.9004" r="5.91535" transform="rotate(42.6367 67.0164 63.9004)" stroke="white" stroke-opacity="0.1"/>
<rect x="59.9084" y="39.4186" width="4.3991" height="26.3946" transform="rotate(42.6367 59.9084 39.4186)" fill="#F80000"/>
<rect x="59.9084" y="39.4186" width="4.3991" height="26.3946" transform="rotate(42.6367 59.9084 39.4186)" fill="white"/>
<rect x="59.9376" y="40.1251" width="3.3991" height="25.3946" transform="rotate(42.6367 59.9376 40.1251)" stroke="white" stroke-opacity="0.1"/>
<rect x="64.2488" y="31.4565" width="8.79819" height="8.79819" transform="rotate(42.6367 64.2488 31.4565)" fill="#F80000"/>
<rect x="64.2488" y="31.4565" width="8.79819" height="8.79819" transform="rotate(42.6367 64.2488 31.4565)" fill="white"/>
<rect x="64.2779" y="32.163" width="7.79819" height="7.79819" transform="rotate(42.6367 64.2779 32.163)" stroke="black" stroke-opacity="0.1"/>
<rect x="41.9014" y="55.7281" width="8.79819" height="8.79819" transform="rotate(42.6367 41.9014 55.7281)" fill="#F80000"/>
<rect x="41.9014" y="55.7281" width="8.79819" height="8.79819" transform="rotate(42.6367 41.9014 55.7281)" fill="white"/>
<rect x="41.9305" y="56.4347" width="7.79819" height="7.79819" transform="rotate(42.6367 41.9305 56.4347)" stroke="black" stroke-opacity="0.1"/>
<rect x="35.6372" y="17.0704" width="4.3991" height="26.3946" transform="rotate(42.6367 35.6372 17.0704)" fill="#F80000"/>
<rect x="35.6372" y="17.0704" width="4.3991" height="26.3946" transform="rotate(42.6367 35.6372 17.0704)" fill="white"/>
<rect x="35.6664" y="17.7769" width="3.3991" height="25.3946" transform="rotate(42.6367 35.6664 17.7769)" stroke="#101010" stroke-opacity="0.1"/>
<rect x="17.6299" y="33.38" width="8.79819" height="8.79819" transform="rotate(42.6367 17.6299 33.38)" fill="#F80000"/>
<rect x="17.6299" y="33.38" width="8.79819" height="8.79819" transform="rotate(42.6367 17.6299 33.38)" fill="white"/>
<rect x="17.659" y="34.0865" width="7.79819" height="7.79819" transform="rotate(42.6367 17.659 34.0865)" stroke="#101010" stroke-opacity="0.1"/>
<rect x="39.9775" y="9.10925" width="8.79819" height="8.79819" transform="rotate(42.6367 39.9775 9.10925)" fill="#F80000"/>
<rect x="39.9775" y="9.10925" width="8.79819" height="8.79819" transform="rotate(42.6367 39.9775 9.10925)" fill="white"/>
<rect x="40.0067" y="9.81576" width="7.79819" height="7.79819" transform="rotate(42.6367 40.0067 9.81576)" stroke="#101010" stroke-opacity="0.1"/>
</g>
<defs>
<clipPath id="clip0">
<rect width="328" height="81" fill="white"/>
</clipPath>
</defs>
</svg>
