<svg width="350" height="106" viewBox="0 0 350 106" fill="none" xmlns="http://www.w3.org/2000/svg">
<path d="M129.175 33.5V29.6C129.175 27.4333 128.308 26.35 126.575 26.35C124.842 26.35 123.975 27.4333 123.975 29.6V53.65C123.975 54.6467 124.17 55.4483 124.56 56.055C124.95 56.6617 125.448 56.965 126.055 56.965C127.008 56.965 128.048 56.3583 129.175 55.145V47.8H126.9V40H142.175V60.8C142.175 62.8367 142.283 64.57 142.5 66H136.065L133.27 61.97C129.673 65.09 125.275 66.65 120.075 66.65C117.388 66.65 115.2 65.935 113.51 64.505C111.82 63.0317 110.975 61.1467 110.975 58.85V26.35C110.975 23.49 112.145 21.475 114.485 20.305C116.868 19.135 120.898 18.55 126.575 18.55C136.975 18.55 142.175 20.9333 142.175 25.7V33.5H129.175ZM145.085 19.2H169.785V28.3H158.085V38.05H165.885V47.15H158.085V56.9H169.785V66H145.085V19.2ZM172.395 19.2H173.695C180.455 19.2 186.522 22.06 191.895 27.78V19.2H203.595V60.8C203.595 62.8367 203.703 64.57 203.92 66H190.595V51.05C190.595 45.72 190.075 41.2567 189.035 37.66C188.038 34.02 186.825 32.2 185.395 32.2V66H172.395V19.2ZM206.814 19.2H231.514V28.3H219.814V38.05H227.614V47.15H219.814V56.9H231.514V66H206.814V19.2ZM247.125 27V40H249.725C251.458 40 252.325 38.9167 252.325 36.75V30.25C252.325 28.0833 251.458 27 249.725 27H247.125ZM234.125 19.2H249.075C254.751 19.2 258.76 19.785 261.1 20.955C263.483 22.125 264.675 24.14 264.675 27V36.1C264.675 38.18 264.068 39.805 262.855 40.975C261.641 42.145 259.648 42.9467 256.875 43.38C259.171 44.03 261.143 45.1567 262.79 46.76C264.48 48.32 265.325 49.9667 265.325 51.7V60.8C265.325 62.8367 265.433 64.57 265.65 66H254.6C253.69 66 253.083 65.3933 252.78 64.18C252.476 62.9667 252.325 60.7567 252.325 57.55V51.05C252.325 50.0967 252.13 49.3167 251.74 48.71C251.35 48.1033 250.851 47.8 250.245 47.8H247.125V66H234.125V19.2Z" fill="#5700FF"/>
<path d="M267.902 19.2H280.902V40.13C280.902 42.8167 281.183 46.2183 281.747 50.335C282.353 54.4083 282.938 57.03 283.502 58.2C284.065 57.03 284.628 54.4083 285.192 50.335C285.798 46.2617 286.102 42.86 286.102 40.13V19.2H299.102V36.1C299.102 39.5667 298.343 43.7917 296.827 48.775C295.31 53.7583 293.793 57.875 292.277 61.125L290.002 66H277.002C276.742 65.5233 276.395 64.8517 275.962 63.985C275.572 63.1183 274.857 61.4283 273.817 58.915C272.777 56.4017 271.845 53.975 271.022 51.635C270.242 49.295 269.527 46.6733 268.877 43.77C268.227 40.8233 267.902 38.2667 267.902 36.1V19.2ZM302.012 19.2H315.012V66H302.012V19.2ZM347.852 32.2H337.452V28.3C337.452 27 336.152 26.35 333.552 26.35C330.952 26.35 329.652 27.2167 329.652 28.95C329.652 30.25 330.302 31.615 331.602 33.045C332.902 34.4317 334.462 35.7533 336.282 37.01C338.145 38.2233 339.987 39.48 341.807 40.78C343.67 42.08 345.252 43.51 346.552 45.07C347.852 46.63 348.502 48.19 348.502 49.75V58.85C348.502 61.71 347.353 63.725 345.057 64.895C342.76 66.065 338.817 66.65 333.227 66.65C323.043 66.65 317.952 64.4833 317.952 60.15V52.35H328.352V56.25C328.352 57.9833 329.76 58.85 332.577 58.85C335.393 58.85 336.802 57.7667 336.802 55.6C336.802 54.3 336.173 52.935 334.917 51.505C333.66 50.075 332.143 48.7317 330.367 47.475C328.59 46.175 326.813 44.875 325.037 43.575C323.26 42.2317 321.743 40.78 320.487 39.22C319.23 37.6167 318.602 36.035 318.602 34.475V26.35C318.602 23.49 319.707 21.475 321.917 20.305C324.127 19.135 327.897 18.55 333.227 18.55C338.557 18.55 342.327 19.0483 344.537 20.045C346.747 20.9983 347.852 22.6667 347.852 25.05V32.2Z" fill="#033647"/>
<path d="M118.955 84.99C119.625 85.13 120.12 85.395 120.44 85.785C120.77 86.165 120.935 86.67 120.935 87.3C120.935 89.14 119.56 90.06 116.81 90.06C115.86 90.06 115.08 90.04 114.47 90H114.455L114.56 87.105L114.455 80.37L117.455 80.355C118.385 80.355 119.105 80.56 119.615 80.97C120.135 81.37 120.395 81.955 120.395 82.725C120.395 83.265 120.27 83.73 120.02 84.12C119.77 84.5 119.415 84.79 118.955 84.99ZM118.805 82.905C118.805 82.425 118.67 82.08 118.4 81.87C118.13 81.66 117.675 81.555 117.035 81.555H116.015L115.97 84.51L117.515 84.555C117.955 84.445 118.28 84.26 118.49 84C118.7 83.73 118.805 83.365 118.805 82.905ZM117.065 88.86C117.805 88.86 118.375 88.72 118.775 88.44C119.175 88.16 119.375 87.75 119.375 87.21C119.375 86.35 118.82 85.845 117.71 85.695L115.955 85.71L115.94 86.97L115.985 88.815C116.375 88.845 116.735 88.86 117.065 88.86ZM126.112 87.105L126.037 80.415L127.597 80.34L127.507 87.6H127.627L132.142 80.37H133.777L133.702 86.97L133.762 90H132.202L132.277 87.105V82.77H132.157L127.642 90H126.037L126.112 87.105ZM143.212 84.975C144.522 85.305 145.177 86.075 145.177 87.285C145.177 88.165 144.842 88.86 144.172 89.37C143.502 89.88 142.592 90.135 141.442 90.135C140.922 90.135 140.427 90.075 139.957 89.955C139.487 89.835 139.087 89.665 138.757 89.445L139.042 88.095L139.177 88.05C139.487 88.3 139.837 88.495 140.227 88.635C140.627 88.775 141.027 88.845 141.427 88.845C142.077 88.845 142.602 88.69 143.002 88.38C143.412 88.07 143.617 87.665 143.617 87.165C143.617 86.765 143.492 86.435 143.242 86.175C142.992 85.915 142.642 85.74 142.192 85.65H140.167L140.047 85.53L140.152 84.465L142.087 84.495C142.407 84.355 142.662 84.14 142.852 83.85C143.052 83.56 143.152 83.24 143.152 82.89C143.152 82.03 142.592 81.6 141.472 81.6C140.692 81.6 139.887 81.855 139.057 82.365L138.877 82.29L139.012 80.925C139.802 80.485 140.642 80.265 141.532 80.265C142.522 80.265 143.302 80.48 143.872 80.91C144.442 81.33 144.727 81.91 144.727 82.65C144.727 83.16 144.592 83.62 144.322 84.03C144.062 84.44 143.692 84.755 143.212 84.975ZM157.245 80.385L154.455 87.03C154.075 87.87 153.725 88.495 153.405 88.905C153.095 89.315 152.725 89.61 152.295 89.79C151.875 89.96 151.295 90.07 150.555 90.12L150.42 90.105C150.31 89.755 150.22 89.355 150.15 88.905L150.225 88.755C150.995 88.665 151.56 88.55 151.92 88.41C152.28 88.26 152.575 88.02 152.805 87.69L149.145 80.385L150.81 80.37L151.155 81.315L153.39 86.04H153.555L155.43 81.24L155.715 80.385H157.245ZM168.598 90H167.008L166.783 88.92L166.363 87.585L164.323 87.54L162.478 87.585L162.028 88.845L161.788 90H160.243L163.678 80.37H165.493L168.598 90ZM165.973 86.325L164.593 81.885H164.488L162.913 86.325L164.428 86.355L165.973 86.325ZM179.409 86.97L179.454 90H177.909L177.984 87.105L177.924 81.555H175.704L175.629 82.32C175.449 84.28 175.239 85.8 174.999 86.88C174.769 87.96 174.474 88.75 174.114 89.25C173.764 89.75 173.304 90.06 172.734 90.18L172.299 90.21L172.014 88.965C172.494 88.805 172.869 88.505 173.139 88.065C173.419 87.625 173.644 86.945 173.814 86.025C173.994 85.105 174.159 83.78 174.309 82.05L174.474 80.4L174.459 80.37H179.484L179.409 86.97ZM188.865 84.24C189.815 84.24 190.535 84.465 191.025 84.915C191.515 85.355 191.76 85.995 191.76 86.835C191.76 87.835 191.415 88.615 190.725 89.175C190.045 89.725 189.085 90 187.845 90H185.34L185.415 87.12L185.34 80.37H186.9L186.855 84.24H188.865ZM188.355 88.905C188.945 88.825 189.39 88.625 189.69 88.305C190 87.985 190.155 87.56 190.155 87.03C190.155 86.49 190 86.075 189.69 85.785C189.39 85.495 188.95 85.355 188.37 85.365L186.84 85.38L186.825 86.985L186.855 88.845L188.355 88.905ZM204.236 86.97L204.281 90H202.736L202.811 87.105L202.796 85.8L200.336 85.785L198.086 85.8L198.071 86.97L198.131 90H196.601L196.661 87.105L196.601 80.37H198.146L198.101 84.51L200.456 84.54L202.781 84.51L202.736 80.37H204.311L204.236 86.97ZM213.22 84.24C214.09 84.24 214.755 84.465 215.215 84.915C215.685 85.355 215.92 85.995 215.92 86.835C215.92 87.835 215.595 88.615 214.945 89.175C214.295 89.725 213.38 90 212.2 90H209.845L209.92 87.12L209.845 80.37H211.405L211.36 84.24H213.22ZM218.695 86.97L218.77 90H217.195L217.3 87.105L217.195 80.37H218.785L218.695 86.97ZM212.71 88.905C213.23 88.825 213.63 88.625 213.91 88.305C214.19 87.985 214.33 87.56 214.33 87.03C214.33 86.49 214.19 86.075 213.91 85.785C213.63 85.495 213.235 85.355 212.725 85.365L211.345 85.38L211.33 86.985L211.36 88.845L212.71 88.905ZM230.313 88.68L230.403 88.815L230.298 90H224.613L224.718 87.105L224.613 80.37H230.328L230.418 80.505L230.298 81.69L228.018 81.63L226.188 81.645L226.143 84.45L227.883 84.48L229.473 84.435L229.578 84.555L229.458 85.74L227.763 85.695L226.128 85.725L226.113 86.97L226.158 88.74L227.988 88.755L230.313 88.68ZM248.033 90H246.443L246.218 88.92L245.798 87.585L243.758 87.54L241.913 87.585L241.463 88.845L241.223 90H239.678L243.113 80.37H244.928L248.033 90ZM245.408 86.325L244.028 81.885H243.923L242.348 86.325L243.863 86.355L245.408 86.325ZM258.844 86.97L258.889 90H257.344L257.419 87.105L257.359 81.555H255.139L255.064 82.32C254.884 84.28 254.674 85.8 254.434 86.88C254.204 87.96 253.909 88.75 253.549 89.25C253.199 89.75 252.739 90.06 252.169 90.18L251.734 90.21L251.449 88.965C251.929 88.805 252.304 88.505 252.574 88.065C252.854 87.625 253.079 86.945 253.249 86.025C253.429 85.105 253.594 83.78 253.744 82.05L253.909 80.4L253.894 80.37H258.919L258.844 86.97ZM269.965 80.505L269.845 81.645L267.79 81.6H266.335L266.275 86.97L266.335 90H264.79L264.85 87.105L264.79 80.37H269.86L269.965 80.505ZM277.338 80.25C278.668 80.25 279.693 80.66 280.413 81.48C281.133 82.3 281.493 83.47 281.493 84.99C281.493 86.63 281.108 87.9 280.338 88.8C279.568 89.69 278.473 90.135 277.053 90.135C275.733 90.135 274.713 89.715 273.993 88.875C273.283 88.025 272.928 86.825 272.928 85.275C272.928 83.665 273.308 82.425 274.068 81.555C274.838 80.685 275.928 80.25 277.338 80.25ZM277.218 81.51C276.308 81.51 275.628 81.805 275.178 82.395C274.738 82.975 274.518 83.875 274.518 85.095C274.518 86.425 274.733 87.4 275.163 88.02C275.603 88.63 276.278 88.935 277.188 88.935C278.108 88.935 278.788 88.64 279.228 88.05C279.668 87.46 279.888 86.54 279.888 85.29C279.888 83.98 279.668 83.025 279.228 82.425C278.798 81.815 278.128 81.51 277.218 81.51ZM289.876 80.355C290.846 80.355 291.591 80.605 292.111 81.105C292.641 81.595 292.906 82.305 292.906 83.235C292.906 84.315 292.571 85.17 291.901 85.8C291.241 86.43 290.331 86.745 289.171 86.745H288.106V86.97L288.181 90H286.606L286.711 87.105L286.606 80.37L289.876 80.355ZM289.621 85.545C290.171 85.435 290.586 85.2 290.866 84.84C291.156 84.47 291.301 83.98 291.301 83.37C291.301 82.77 291.146 82.325 290.836 82.035C290.536 81.745 290.076 81.59 289.456 81.57L288.181 81.615L288.121 85.515L289.621 85.545ZM297.824 87.105L297.749 80.415L299.309 80.34L299.219 87.6H299.339L303.854 80.37H305.489L305.414 86.97L305.474 90H303.914L303.989 87.105V82.77H303.869L299.354 90H297.749L297.824 87.105ZM316.757 80.505L316.667 81.675L314.927 81.585H314.117L314.042 86.97L314.117 90H312.557L312.647 87.105L312.572 81.585H311.762L309.992 81.675L309.887 81.54L310.007 80.37H316.667L316.757 80.505ZM331.119 90H329.739L329.544 87.075L329.094 82.725H328.989L326.514 88.935H325.284L322.989 82.725H322.854L322.404 86.94L322.164 90H320.859L321.864 80.37H323.634L324.084 81.81L325.929 86.925H326.049L327.999 81.765L328.449 80.37H330.204L331.119 90ZM339.614 84.24C340.484 84.24 341.149 84.465 341.609 84.915C342.079 85.355 342.314 85.995 342.314 86.835C342.314 87.835 341.989 88.615 341.339 89.175C340.689 89.725 339.774 90 338.594 90H336.239L336.314 87.12L336.239 80.37H337.799L337.754 84.24H339.614ZM345.089 86.97L345.164 90H343.589L343.694 87.105L343.589 80.37H345.179L345.089 86.97ZM339.104 88.905C339.624 88.825 340.024 88.625 340.304 88.305C340.584 87.985 340.724 87.56 340.724 87.03C340.724 86.49 340.584 86.075 340.304 85.785C340.024 85.495 339.629 85.355 339.119 85.365L337.739 85.38L337.724 86.985L337.754 88.845L339.104 88.905Z" fill="#030009"/>
<rect x="42.1257" y="56.323" width="4.3991" height="26.3946" transform="rotate(-47.3633 42.1257 56.323)" fill="#F80000"/>
<rect x="42.1257" y="56.323" width="4.3991" height="26.3946" transform="rotate(-47.3633 42.1257 56.323)" fill="#033647"/>
<rect x="42.8322" y="56.2939" width="3.3991" height="25.3946" transform="rotate(-47.3633 42.8322 56.2939)" stroke="white" stroke-opacity="0.1"/>
<rect x="64.4749" y="32.0497" width="4.3991" height="26.3946" transform="rotate(-47.3633 64.4749 32.0497)" fill="#F80000"/>
<rect x="64.4749" y="32.0497" width="4.3991" height="26.3946" transform="rotate(-47.3633 64.4749 32.0497)" fill="#033647"/>
<rect x="65.1814" y="32.0205" width="3.3991" height="25.3946" transform="rotate(-47.3633 65.1814 32.0205)" stroke="white" stroke-opacity="0.1"/>
<rect width="8.79819" height="68.186" transform="matrix(-0.735663 -0.677348 -0.677348 0.735663 87.7197 29.5342)" fill="#5700FF"/>
<rect x="-0.706505" y="0.0291575" width="7.79819" height="67.186" transform="matrix(-0.735663 -0.677348 -0.677348 0.735663 86.5132 29.0634)" stroke="white" stroke-opacity="0.1"/>
<circle cx="86.4703" cy="24.3975" r="6.41535" transform="rotate(42.6367 86.4703 24.3975)" fill="#5700FF"/>
<circle cx="86.4703" cy="24.3975" r="5.91535" transform="rotate(42.6367 86.4703 24.3975)" stroke="white" stroke-opacity="0.1"/>
<circle cx="36.932" cy="78.2007" r="6.41535" transform="rotate(42.6367 36.932 78.2007)" fill="#5700FF"/>
<circle cx="36.932" cy="78.2007" r="5.91535" transform="rotate(42.6367 36.932 78.2007)" stroke="white" stroke-opacity="0.1"/>
<rect width="8.79819" height="68.186" transform="matrix(-0.677348 0.735663 0.735663 0.677348 40.8442 25.2418)" fill="#5700FF"/>
<rect x="0.0291575" y="0.706505" width="7.79819" height="67.186" transform="matrix(-0.677348 0.735663 0.735663 0.677348 40.3734 25.4483)" stroke="white" stroke-opacity="0.1"/>
<circle cx="34.763" cy="25.6224" r="6.41535" transform="rotate(42.6367 34.763 25.6224)" fill="#5700FF"/>
<circle cx="34.763" cy="25.6224" r="5.91535" transform="rotate(42.6367 34.763 25.6224)" stroke="white" stroke-opacity="0.1"/>
<circle cx="89.5098" cy="76.0292" r="6.41535" transform="rotate(42.6367 89.5098 76.0292)" fill="#5700FF"/>
<circle cx="89.5098" cy="76.0292" r="5.91535" transform="rotate(42.6367 89.5098 76.0292)" stroke="white" stroke-opacity="0.1"/>
<rect x="82.4019" y="51.5474" width="4.3991" height="26.3946" transform="rotate(42.6367 82.4019 51.5474)" fill="#F80000"/>
<rect x="82.4019" y="51.5474" width="4.3991" height="26.3946" transform="rotate(42.6367 82.4019 51.5474)" fill="#033647"/>
<rect x="82.431" y="52.2539" width="3.3991" height="25.3946" transform="rotate(42.6367 82.431 52.2539)" stroke="white" stroke-opacity="0.1"/>
<rect x="86.7422" y="43.5855" width="8.79819" height="8.79819" transform="rotate(42.6367 86.7422 43.5855)" fill="#F80000"/>
<rect x="86.7422" y="43.5855" width="8.79819" height="8.79819" transform="rotate(42.6367 86.7422 43.5855)" fill="#033647"/>
<rect x="86.7713" y="44.292" width="7.79819" height="7.79819" transform="rotate(42.6367 86.7713 44.292)" stroke="white" stroke-opacity="0.1"/>
<rect x="64.3948" y="67.8571" width="8.79819" height="8.79819" transform="rotate(42.6367 64.3948 67.8571)" fill="#F80000"/>
<rect x="64.3948" y="67.8571" width="8.79819" height="8.79819" transform="rotate(42.6367 64.3948 67.8571)" fill="#033647"/>
<rect x="64.4239" y="68.5636" width="7.79819" height="7.79819" transform="rotate(42.6367 64.4239 68.5636)" stroke="white" stroke-opacity="0.1"/>
<rect x="58.1306" y="29.1993" width="4.3991" height="26.3946" transform="rotate(42.6367 58.1306 29.1993)" fill="#F80000"/>
<rect x="58.1306" y="29.1993" width="4.3991" height="26.3946" transform="rotate(42.6367 58.1306 29.1993)" fill="#033647"/>
<rect x="58.1598" y="29.9058" width="3.3991" height="25.3946" transform="rotate(42.6367 58.1598 29.9058)" stroke="white" stroke-opacity="0.1"/>
<rect x="40.1233" y="45.5089" width="8.79819" height="8.79819" transform="rotate(42.6367 40.1233 45.5089)" fill="#F80000"/>
<rect x="40.1233" y="45.5089" width="8.79819" height="8.79819" transform="rotate(42.6367 40.1233 45.5089)" fill="#033647"/>
<rect x="40.1524" y="46.2154" width="7.79819" height="7.79819" transform="rotate(42.6367 40.1524 46.2154)" stroke="white" stroke-opacity="0.1"/>
<rect x="62.4709" y="21.2382" width="8.79819" height="8.79819" transform="rotate(42.6367 62.4709 21.2382)" fill="#F80000"/>
<rect x="62.4709" y="21.2382" width="8.79819" height="8.79819" transform="rotate(42.6367 62.4709 21.2382)" fill="#033647"/>
<rect x="62.5001" y="21.9447" width="7.79819" height="7.79819" transform="rotate(42.6367 62.5001 21.9447)" stroke="white" stroke-opacity="0.1"/>
</svg>
