<svg width="392" height="122" viewBox="0 0 392 122" fill="none" xmlns="http://www.w3.org/2000/svg">
<g clip-path="url(#clip0)">
<rect width="392" height="122" fill="white"/>
<path d="M132.175 33.5V29.6C132.175 27.4333 131.308 26.35 129.575 26.35C127.842 26.35 126.975 27.4333 126.975 29.6V53.65C126.975 54.6467 127.17 55.4483 127.56 56.055C127.95 56.6617 128.448 56.965 129.055 56.965C130.008 56.965 131.048 56.3583 132.175 55.145V47.8H129.9V40H145.175V60.8C145.175 62.8367 145.283 64.57 145.5 66H139.065L136.27 61.97C132.673 65.09 128.275 66.65 123.075 66.65C120.388 66.65 118.2 65.935 116.51 64.505C114.82 63.0317 113.975 61.1467 113.975 58.85V26.35C113.975 23.49 115.145 21.475 117.485 20.305C119.868 19.135 123.898 18.55 129.575 18.55C139.975 18.55 145.175 20.9333 145.175 25.7V33.5H132.175ZM148.085 19.2H172.785V28.3H161.085V38.05H168.885V47.15H161.085V56.9H172.785V66H148.085V19.2ZM175.395 19.2H176.695C183.455 19.2 189.522 22.06 194.895 27.78V19.2H206.595V60.8C206.595 62.8367 206.703 64.57 206.92 66H193.595V51.05C193.595 45.72 193.075 41.2567 192.035 37.66C191.038 34.02 189.825 32.2 188.395 32.2V66H175.395V19.2ZM209.814 19.2H234.514V28.3H222.814V38.05H230.614V47.15H222.814V56.9H234.514V66H209.814V19.2ZM250.125 27V40H252.725C254.458 40 255.325 38.9167 255.325 36.75V30.25C255.325 28.0833 254.458 27 252.725 27H250.125ZM237.125 19.2H252.075C257.751 19.2 261.76 19.785 264.1 20.955C266.483 22.125 267.675 24.14 267.675 27V36.1C267.675 38.18 267.068 39.805 265.855 40.975C264.641 42.145 262.648 42.9467 259.875 43.38C262.171 44.03 264.143 45.1567 265.79 46.76C267.48 48.32 268.325 49.9667 268.325 51.7V60.8C268.325 62.8367 268.433 64.57 268.65 66H257.6C256.69 66 256.083 65.3933 255.78 64.18C255.476 62.9667 255.325 60.7567 255.325 57.55V51.05C255.325 50.0967 255.13 49.3167 254.74 48.71C254.35 48.1033 253.851 47.8 253.245 47.8H250.125V66H237.125V19.2Z" fill="#212936"/>
<path d="M270.902 19.2H283.902V40.13C283.902 42.8167 284.183 46.2183 284.747 50.335C285.353 54.4083 285.938 57.03 286.502 58.2C287.065 57.03 287.628 54.4083 288.192 50.335C288.798 46.2617 289.102 42.86 289.102 40.13V19.2H302.102V36.1C302.102 39.5667 301.343 43.7917 299.827 48.775C298.31 53.7583 296.793 57.875 295.277 61.125L293.002 66H280.002C279.742 65.5233 279.395 64.8517 278.962 63.985C278.572 63.1183 277.857 61.4283 276.817 58.915C275.777 56.4017 274.845 53.975 274.022 51.635C273.242 49.295 272.527 46.6733 271.877 43.77C271.227 40.8233 270.902 38.2667 270.902 36.1V19.2ZM305.012 19.2H318.012V66H305.012V19.2ZM350.852 32.2H340.452V28.3C340.452 27 339.152 26.35 336.552 26.35C333.952 26.35 332.652 27.2167 332.652 28.95C332.652 30.25 333.302 31.615 334.602 33.045C335.902 34.4317 337.462 35.7533 339.282 37.01C341.145 38.2233 342.987 39.48 344.807 40.78C346.67 42.08 348.252 43.51 349.552 45.07C350.852 46.63 351.502 48.19 351.502 49.75V58.85C351.502 61.71 350.353 63.725 348.057 64.895C345.76 66.065 341.817 66.65 336.227 66.65C326.043 66.65 320.952 64.4833 320.952 60.15V52.35H331.352V56.25C331.352 57.9833 332.76 58.85 335.577 58.85C338.393 58.85 339.802 57.7667 339.802 55.6C339.802 54.3 339.173 52.935 337.917 51.505C336.66 50.075 335.143 48.7317 333.367 47.475C331.59 46.175 329.813 44.875 328.037 43.575C326.26 42.2317 324.743 40.78 323.487 39.22C322.23 37.6167 321.602 36.035 321.602 34.475V26.35C321.602 23.49 322.707 21.475 324.917 20.305C327.127 19.135 330.897 18.55 336.227 18.55C341.557 18.55 345.327 19.0483 347.537 20.045C349.747 20.9983 350.852 22.6667 350.852 25.05V32.2Z" fill="#0CAF39"/>
<path d="M121.955 84.99C122.625 85.13 123.12 85.395 123.44 85.785C123.77 86.165 123.935 86.67 123.935 87.3C123.935 89.14 122.56 90.06 119.81 90.06C118.86 90.06 118.08 90.04 117.47 90H117.455L117.56 87.105L117.455 80.37L120.455 80.355C121.385 80.355 122.105 80.56 122.615 80.97C123.135 81.37 123.395 81.955 123.395 82.725C123.395 83.265 123.27 83.73 123.02 84.12C122.77 84.5 122.415 84.79 121.955 84.99ZM121.805 82.905C121.805 82.425 121.67 82.08 121.4 81.87C121.13 81.66 120.675 81.555 120.035 81.555H119.015L118.97 84.51L120.515 84.555C120.955 84.445 121.28 84.26 121.49 84C121.7 83.73 121.805 83.365 121.805 82.905ZM120.065 88.86C120.805 88.86 121.375 88.72 121.775 88.44C122.175 88.16 122.375 87.75 122.375 87.21C122.375 86.35 121.82 85.845 120.71 85.695L118.955 85.71L118.94 86.97L118.985 88.815C119.375 88.845 119.735 88.86 120.065 88.86ZM129.112 87.105L129.037 80.415L130.597 80.34L130.507 87.6H130.627L135.142 80.37H136.777L136.702 86.97L136.762 90H135.202L135.277 87.105V82.77H135.157L130.642 90H129.037L129.112 87.105ZM146.212 84.975C147.522 85.305 148.177 86.075 148.177 87.285C148.177 88.165 147.842 88.86 147.172 89.37C146.502 89.88 145.592 90.135 144.442 90.135C143.922 90.135 143.427 90.075 142.957 89.955C142.487 89.835 142.087 89.665 141.757 89.445L142.042 88.095L142.177 88.05C142.487 88.3 142.837 88.495 143.227 88.635C143.627 88.775 144.027 88.845 144.427 88.845C145.077 88.845 145.602 88.69 146.002 88.38C146.412 88.07 146.617 87.665 146.617 87.165C146.617 86.765 146.492 86.435 146.242 86.175C145.992 85.915 145.642 85.74 145.192 85.65H143.167L143.047 85.53L143.152 84.465L145.087 84.495C145.407 84.355 145.662 84.14 145.852 83.85C146.052 83.56 146.152 83.24 146.152 82.89C146.152 82.03 145.592 81.6 144.472 81.6C143.692 81.6 142.887 81.855 142.057 82.365L141.877 82.29L142.012 80.925C142.802 80.485 143.642 80.265 144.532 80.265C145.522 80.265 146.302 80.48 146.872 80.91C147.442 81.33 147.727 81.91 147.727 82.65C147.727 83.16 147.592 83.62 147.322 84.03C147.062 84.44 146.692 84.755 146.212 84.975ZM160.245 80.385L157.455 87.03C157.075 87.87 156.725 88.495 156.405 88.905C156.095 89.315 155.725 89.61 155.295 89.79C154.875 89.96 154.295 90.07 153.555 90.12L153.42 90.105C153.31 89.755 153.22 89.355 153.15 88.905L153.225 88.755C153.995 88.665 154.56 88.55 154.92 88.41C155.28 88.26 155.575 88.02 155.805 87.69L152.145 80.385L153.81 80.37L154.155 81.315L156.39 86.04H156.555L158.43 81.24L158.715 80.385H160.245ZM171.598 90H170.008L169.783 88.92L169.363 87.585L167.323 87.54L165.478 87.585L165.028 88.845L164.788 90H163.243L166.678 80.37H168.493L171.598 90ZM168.973 86.325L167.593 81.885H167.488L165.913 86.325L167.428 86.355L168.973 86.325ZM182.409 86.97L182.454 90H180.909L180.984 87.105L180.924 81.555H178.704L178.629 82.32C178.449 84.28 178.239 85.8 177.999 86.88C177.769 87.96 177.474 88.75 177.114 89.25C176.764 89.75 176.304 90.06 175.734 90.18L175.299 90.21L175.014 88.965C175.494 88.805 175.869 88.505 176.139 88.065C176.419 87.625 176.644 86.945 176.814 86.025C176.994 85.105 177.159 83.78 177.309 82.05L177.474 80.4L177.459 80.37H182.484L182.409 86.97ZM191.865 84.24C192.815 84.24 193.535 84.465 194.025 84.915C194.515 85.355 194.76 85.995 194.76 86.835C194.76 87.835 194.415 88.615 193.725 89.175C193.045 89.725 192.085 90 190.845 90H188.34L188.415 87.12L188.34 80.37H189.9L189.855 84.24H191.865ZM191.355 88.905C191.945 88.825 192.39 88.625 192.69 88.305C193 87.985 193.155 87.56 193.155 87.03C193.155 86.49 193 86.075 192.69 85.785C192.39 85.495 191.95 85.355 191.37 85.365L189.84 85.38L189.825 86.985L189.855 88.845L191.355 88.905ZM207.236 86.97L207.281 90H205.736L205.811 87.105L205.796 85.8L203.336 85.785L201.086 85.8L201.071 86.97L201.131 90H199.601L199.661 87.105L199.601 80.37H201.146L201.101 84.51L203.456 84.54L205.781 84.51L205.736 80.37H207.311L207.236 86.97ZM216.22 84.24C217.09 84.24 217.755 84.465 218.215 84.915C218.685 85.355 218.92 85.995 218.92 86.835C218.92 87.835 218.595 88.615 217.945 89.175C217.295 89.725 216.38 90 215.2 90H212.845L212.92 87.12L212.845 80.37H214.405L214.36 84.24H216.22ZM221.695 86.97L221.77 90H220.195L220.3 87.105L220.195 80.37H221.785L221.695 86.97ZM215.71 88.905C216.23 88.825 216.63 88.625 216.91 88.305C217.19 87.985 217.33 87.56 217.33 87.03C217.33 86.49 217.19 86.075 216.91 85.785C216.63 85.495 216.235 85.355 215.725 85.365L214.345 85.38L214.33 86.985L214.36 88.845L215.71 88.905ZM233.313 88.68L233.403 88.815L233.298 90H227.613L227.718 87.105L227.613 80.37H233.328L233.418 80.505L233.298 81.69L231.018 81.63L229.188 81.645L229.143 84.45L230.883 84.48L232.473 84.435L232.578 84.555L232.458 85.74L230.763 85.695L229.128 85.725L229.113 86.97L229.158 88.74L230.988 88.755L233.313 88.68ZM251.033 90H249.443L249.218 88.92L248.798 87.585L246.758 87.54L244.913 87.585L244.463 88.845L244.223 90H242.678L246.113 80.37H247.928L251.033 90ZM248.408 86.325L247.028 81.885H246.923L245.348 86.325L246.863 86.355L248.408 86.325ZM261.844 86.97L261.889 90H260.344L260.419 87.105L260.359 81.555H258.139L258.064 82.32C257.884 84.28 257.674 85.8 257.434 86.88C257.204 87.96 256.909 88.75 256.549 89.25C256.199 89.75 255.739 90.06 255.169 90.18L254.734 90.21L254.449 88.965C254.929 88.805 255.304 88.505 255.574 88.065C255.854 87.625 256.079 86.945 256.249 86.025C256.429 85.105 256.594 83.78 256.744 82.05L256.909 80.4L256.894 80.37H261.919L261.844 86.97ZM272.965 80.505L272.845 81.645L270.79 81.6H269.335L269.275 86.97L269.335 90H267.79L267.85 87.105L267.79 80.37H272.86L272.965 80.505ZM280.338 80.25C281.668 80.25 282.693 80.66 283.413 81.48C284.133 82.3 284.493 83.47 284.493 84.99C284.493 86.63 284.108 87.9 283.338 88.8C282.568 89.69 281.473 90.135 280.053 90.135C278.733 90.135 277.713 89.715 276.993 88.875C276.283 88.025 275.928 86.825 275.928 85.275C275.928 83.665 276.308 82.425 277.068 81.555C277.838 80.685 278.928 80.25 280.338 80.25ZM280.218 81.51C279.308 81.51 278.628 81.805 278.178 82.395C277.738 82.975 277.518 83.875 277.518 85.095C277.518 86.425 277.733 87.4 278.163 88.02C278.603 88.63 279.278 88.935 280.188 88.935C281.108 88.935 281.788 88.64 282.228 88.05C282.668 87.46 282.888 86.54 282.888 85.29C282.888 83.98 282.668 83.025 282.228 82.425C281.798 81.815 281.128 81.51 280.218 81.51ZM292.876 80.355C293.846 80.355 294.591 80.605 295.111 81.105C295.641 81.595 295.906 82.305 295.906 83.235C295.906 84.315 295.571 85.17 294.901 85.8C294.241 86.43 293.331 86.745 292.171 86.745H291.106V86.97L291.181 90H289.606L289.711 87.105L289.606 80.37L292.876 80.355ZM292.621 85.545C293.171 85.435 293.586 85.2 293.866 84.84C294.156 84.47 294.301 83.98 294.301 83.37C294.301 82.77 294.146 82.325 293.836 82.035C293.536 81.745 293.076 81.59 292.456 81.57L291.181 81.615L291.121 85.515L292.621 85.545ZM300.824 87.105L300.749 80.415L302.309 80.34L302.219 87.6H302.339L306.854 80.37H308.489L308.414 86.97L308.474 90H306.914L306.989 87.105V82.77H306.869L302.354 90H300.749L300.824 87.105ZM319.757 80.505L319.667 81.675L317.927 81.585H317.117L317.042 86.97L317.117 90H315.557L315.647 87.105L315.572 81.585H314.762L312.992 81.675L312.887 81.54L313.007 80.37H319.667L319.757 80.505ZM334.119 90H332.739L332.544 87.075L332.094 82.725H331.989L329.514 88.935H328.284L325.989 82.725H325.854L325.404 86.94L325.164 90H323.859L324.864 80.37H326.634L327.084 81.81L328.929 86.925H329.049L330.999 81.765L331.449 80.37H333.204L334.119 90ZM342.614 84.24C343.484 84.24 344.149 84.465 344.609 84.915C345.079 85.355 345.314 85.995 345.314 86.835C345.314 87.835 344.989 88.615 344.339 89.175C343.689 89.725 342.774 90 341.594 90H339.239L339.314 87.12L339.239 80.37H340.799L340.754 84.24H342.614ZM348.089 86.97L348.164 90H346.589L346.694 87.105L346.589 80.37H348.179L348.089 86.97ZM342.104 88.905C342.624 88.825 343.024 88.625 343.304 88.305C343.584 87.985 343.724 87.56 343.724 87.03C343.724 86.49 343.584 86.075 343.304 85.785C343.024 85.495 342.629 85.355 342.119 85.365L340.739 85.38L340.724 86.985L340.754 88.845L342.104 88.905Z" fill="#030009"/>
<rect x="45.1257" y="56.323" width="4.3991" height="26.3946" transform="rotate(-47.3633 45.1257 56.323)" fill="#F80000"/>
<rect x="45.1257" y="56.323" width="4.3991" height="26.3946" transform="rotate(-47.3633 45.1257 56.323)" fill="#212936"/>
<rect x="45.8322" y="56.2938" width="3.3991" height="25.3946" transform="rotate(-47.3633 45.8322 56.2938)" stroke="white" stroke-opacity="0.1"/>
<rect x="67.4749" y="32.0497" width="4.3991" height="26.3946" transform="rotate(-47.3633 67.4749 32.0497)" fill="#F80000"/>
<rect x="67.4749" y="32.0497" width="4.3991" height="26.3946" transform="rotate(-47.3633 67.4749 32.0497)" fill="#212936"/>
<rect x="68.1814" y="32.0205" width="3.3991" height="25.3946" transform="rotate(-47.3633 68.1814 32.0205)" stroke="white" stroke-opacity="0.1"/>
<rect width="8.79819" height="68.186" transform="matrix(-0.735663 -0.677348 -0.677348 0.735663 90.7197 29.5342)" fill="#0CAF3A"/>
<rect x="-0.706505" y="0.0291575" width="7.79819" height="67.186" transform="matrix(-0.735663 -0.677348 -0.677348 0.735663 89.5132 29.0633)" stroke="white" stroke-opacity="0.1"/>
<circle cx="89.4703" cy="24.3975" r="6.41535" transform="rotate(42.6367 89.4703 24.3975)" fill="#0CAF3A"/>
<circle cx="89.4703" cy="24.3975" r="5.91535" transform="rotate(42.6367 89.4703 24.3975)" stroke="white" stroke-opacity="0.1"/>
<circle cx="39.932" cy="78.2007" r="6.41535" transform="rotate(42.6367 39.932 78.2007)" fill="#0CAF3A"/>
<circle cx="39.932" cy="78.2007" r="5.91535" transform="rotate(42.6367 39.932 78.2007)" stroke="white" stroke-opacity="0.1"/>
<rect width="8.79819" height="68.186" transform="matrix(-0.677348 0.735663 0.735663 0.677348 43.8442 25.2418)" fill="#0CAF3A"/>
<rect x="0.0291575" y="0.706505" width="7.79819" height="67.186" transform="matrix(-0.677348 0.735663 0.735663 0.677348 43.3734 25.4483)" stroke="white" stroke-opacity="0.1"/>
<circle cx="37.763" cy="25.6225" r="6.41535" transform="rotate(42.6367 37.763 25.6225)" fill="#0CAF3A"/>
<circle cx="37.763" cy="25.6225" r="5.91535" transform="rotate(42.6367 37.763 25.6225)" stroke="white" stroke-opacity="0.1"/>
<circle cx="92.5098" cy="76.0293" r="6.41535" transform="rotate(42.6367 92.5098 76.0293)" fill="#0CAF3A"/>
<circle cx="92.5098" cy="76.0293" r="5.91535" transform="rotate(42.6367 92.5098 76.0293)" stroke="white" stroke-opacity="0.1"/>
<rect x="85.4019" y="51.5475" width="4.3991" height="26.3946" transform="rotate(42.6367 85.4019 51.5475)" fill="#F80000"/>
<rect x="85.4019" y="51.5475" width="4.3991" height="26.3946" transform="rotate(42.6367 85.4019 51.5475)" fill="#212936"/>
<rect x="85.431" y="52.254" width="3.3991" height="25.3946" transform="rotate(42.6367 85.431 52.254)" stroke="white" stroke-opacity="0.1"/>
<rect x="89.7422" y="43.5854" width="8.79819" height="8.79819" transform="rotate(42.6367 89.7422 43.5854)" fill="#F80000"/>
<rect x="89.7422" y="43.5854" width="8.79819" height="8.79819" transform="rotate(42.6367 89.7422 43.5854)" fill="#212936"/>
<rect x="89.7713" y="44.292" width="7.79819" height="7.79819" transform="rotate(42.6367 89.7713 44.292)" stroke="white" stroke-opacity="0.1"/>
<rect x="67.3948" y="67.8571" width="8.79819" height="8.79819" transform="rotate(42.6367 67.3948 67.8571)" fill="#F80000"/>
<rect x="67.3948" y="67.8571" width="8.79819" height="8.79819" transform="rotate(42.6367 67.3948 67.8571)" fill="#212936"/>
<rect x="67.4239" y="68.5636" width="7.79819" height="7.79819" transform="rotate(42.6367 67.4239 68.5636)" stroke="white" stroke-opacity="0.1"/>
<rect x="61.1306" y="29.1993" width="4.3991" height="26.3946" transform="rotate(42.6367 61.1306 29.1993)" fill="#F80000"/>
<rect x="61.1306" y="29.1993" width="4.3991" height="26.3946" transform="rotate(42.6367 61.1306 29.1993)" fill="#212936"/>
<rect x="61.1598" y="29.9058" width="3.3991" height="25.3946" transform="rotate(42.6367 61.1598 29.9058)" stroke="white" stroke-opacity="0.1"/>
<rect x="43.1233" y="45.5089" width="8.79819" height="8.79819" transform="rotate(42.6367 43.1233 45.5089)" fill="#F80000"/>
<rect x="43.1233" y="45.5089" width="8.79819" height="8.79819" transform="rotate(42.6367 43.1233 45.5089)" fill="#212936"/>
<rect x="43.1524" y="46.2154" width="7.79819" height="7.79819" transform="rotate(42.6367 43.1524 46.2154)" stroke="white" stroke-opacity="0.1"/>
<rect x="65.4709" y="21.2382" width="8.79819" height="8.79819" transform="rotate(42.6367 65.4709 21.2382)" fill="#F80000"/>
<rect x="65.4709" y="21.2382" width="8.79819" height="8.79819" transform="rotate(42.6367 65.4709 21.2382)" fill="#212936"/>
<rect x="65.5001" y="21.9447" width="7.79819" height="7.79819" transform="rotate(42.6367 65.5001 21.9447)" stroke="white" stroke-opacity="0.1"/>
</g>
<defs>
<clipPath id="clip0">
<rect width="392" height="122" fill="white"/>
</clipPath>
</defs>
</svg>
