<?xml version="1.0" encoding="utf-8"?>
<!-- Generator: Adobe Illustrator 23.0.3, SVG Export Plug-In . SVG Version: 6.00 Build 0)  -->
<svg version="1.1" id="Слой_1" xmlns="http://www.w3.org/2000/svg" xmlns:xlink="http://www.w3.org/1999/xlink" x="0px" y="0px"
	 viewBox="0 0 141.73 141.73" style="enable-background:new 0 0 141.73 141.73;" xml:space="preserve">
<style type="text/css">
	.st0{fill:#4680C2;}
	.st1{fill-rule:evenodd;clip-rule:evenodd;fill:#FFFFFF;}
</style>
<g>
	
		<ellipse transform="matrix(0.9571 -0.2898 0.2898 0.9571 -17.4951 23.5765)" class="st0" cx="70.87" cy="70.87" rx="60.77" ry="60.77"/>
	<path class="st1" d="M107.18,52.27c0.55-1.84,0-3.19-2.62-3.19h-8.68c-2.21,0-3.22,1.17-3.78,2.45c0,0-4.41,10.76-10.67,17.75
		c-2.02,2.02-2.94,2.67-4.05,2.67c-0.55,0-1.35-0.64-1.35-2.48v-17.2c0-2.21-0.64-3.19-2.48-3.19H59.92c-1.38,0-2.21,1.02-2.21,2
		c0,2.09,3.13,2.58,3.45,8.46v12.78c0,2.8-0.51,3.31-1.61,3.31c-2.94,0-10.1-10.81-14.34-23.17c-0.83-2.4-1.67-3.37-3.88-3.37h-8.68
		c-2.48,0-2.98,1.17-2.98,2.45c0,2.3,2.94,13.7,13.7,28.78c7.17,10.3,17.28,15.88,26.47,15.88c5.52,0,6.2-1.24,6.2-3.38v-7.78
		c0-2.48,0.52-2.97,2.27-2.97c1.29,0,3.49,0.64,8.64,5.61c5.88,5.88,6.85,8.53,10.17,8.53h8.68c2.48,0,3.72-1.24,3-3.69
		c-0.78-2.44-3.59-5.98-7.32-10.17c-2.02-2.39-5.06-4.97-5.98-6.25c-1.29-1.65-0.92-2.39,0-3.86
		C95.5,72.22,106.08,57.33,107.18,52.27"/>
</g>
<g>
</g>
<g>
</g>
<g>
</g>
<g>
</g>
<g>
</g>
<g>
</g>
<g>
</g>
<g>
</g>
<g>
</g>
<g>
</g>
<g>
</g>
<g>
</g>
<g>
</g>
<g>
</g>
<g>
</g>
</svg>
