<svg width="21" height="21" viewBox="0 0 21 21" fill="none" xmlns="http://www.w3.org/2000/svg">
<path d="M10.5 0.4375C4.94316 0.4375 0.4375 4.94316 0.4375 10.5C0.4375 16.0568 4.94316 20.5625 10.5 20.5625C16.0568 20.5625 20.5625 16.0568 20.5625 10.5C20.5625 4.94316 16.0568 0.4375 10.5 0.4375ZM10.5 16.3398C10.0036 16.3398 9.60156 15.9378 9.60156 15.4414C9.60156 14.945 10.0036 14.543 10.5 14.543C10.9964 14.543 11.3984 14.945 11.3984 15.4414C11.3984 15.9378 10.9964 16.3398 10.5 16.3398ZM11.9128 11.4097C11.7094 11.4882 11.5344 11.6262 11.4106 11.8057C11.2868 11.9852 11.2199 12.1979 11.2188 12.4159V12.9258C11.2188 13.0246 11.1379 13.1055 11.0391 13.1055H9.96094C9.86211 13.1055 9.78125 13.0246 9.78125 12.9258V12.4429C9.78125 11.924 9.93174 11.4119 10.2282 10.9852C10.518 10.5674 10.9223 10.2484 11.3984 10.0665C12.1621 9.77227 12.6562 9.13213 12.6562 8.43359C12.6562 7.44307 11.6882 6.63672 10.5 6.63672C9.31182 6.63672 8.34375 7.44307 8.34375 8.43359V8.6043C8.34375 8.70312 8.26289 8.78398 8.16406 8.78398H7.08594C6.98711 8.78398 6.90625 8.70312 6.90625 8.6043V8.43359C6.90625 7.55088 7.29258 6.72656 7.99336 6.11338C8.66719 5.52266 9.55664 5.19922 10.5 5.19922C11.4434 5.19922 12.3328 5.5249 13.0066 6.11338C13.7074 6.72656 14.0938 7.55088 14.0938 8.43359C14.0938 9.73184 13.238 10.8998 11.9128 11.4097Z" fill="#7B8EAD" fill-opacity="0.56"/>
</svg>
